<?xml version="1.0" encoding="UTF-8"?> <svg xmlns="http://www.w3.org/2000/svg" id="Layer_1" data-name="Layer 1" viewBox="0 0 247.21 247.19"><defs><style>.cls-1{fill:#265227;}.cls-2{fill:#fff;}</style></defs><title>russell-books</title><g id="Shape_1" data-name="Shape 1"><ellipse class="cls-1" cx="123.61" cy="123.6" rx="123.61" ry="123.6"></ellipse></g><g id="Shape_5" data-name="Shape 5"><ellipse class="cls-2" cx="123.63" cy="123.32" rx="119.51" ry="119.49"></ellipse></g><circle class="cls-1" cx="123.69" cy="123.06" r="116.94"></circle><path class="cls-2" d="M140.47,216.17c-2.22,1-4.57,1.3-9.05,1.3H113.79v-2.35h.66c2.26,0,3.17-.17,3.56-.65s.31-.52.31-3.26V192.32c0-2.79,0-2.92-.31-3.31s-1.3-.61-3.56-.61h-.66v-2.35h16.8c5.18,0,7.23.39,9.62,1.74a6.84,6.84,0,0,1,3.44,6c0,4-2.7,6.23-8.57,7.18,6.48.87,10,3.88,10,8.32A7.69,7.69,0,0,1,140.47,216.17ZM129.9,188.4h-1.31c-1.39,0-2.44.17-2.44,2.52v9.23h2.14c5.61,0,7.48-2.44,7.48-6.22C135.77,190.31,133.73,188.4,129.9,188.4Zm-.74,14.14h-3v9.8c0,2.65.26,2.78,2.66,2.78h1.3c4.49,0,6.66-2.35,6.66-6.35S134.86,202.54,129.16,202.54Z" transform="translate(-56.71 -56.73)"></path><path class="cls-2" d="M161,218c-7.42,0-12.75-5.23-12.75-12.48s5.16-13.23,12.92-13.23c7.59,0,12.89,5.95,12.89,13.2C174,212.48,169,218,161,218Zm.21-23.93c-4.31,0-6.12,4.17-6.12,10.8,0,6.43,1.74,11.35,6.12,11.35,3.9,0,6-3.76,6-10.7S165.29,194.06,161.19,194.06Z" transform="translate(-56.71 -56.73)"></path><path class="cls-2" d="M189.45,218c-7.42,0-12.75-5.23-12.75-12.48s5.16-13.23,12.92-13.23c7.59,0,12.89,5.95,12.89,13.2C202.51,212.48,197.48,218,189.45,218Zm.21-23.93c-4.31,0-6.12,4.17-6.12,10.8,0,6.43,1.74,11.35,6.12,11.35,3.89,0,6-3.76,6-10.7S193.76,194.06,189.66,194.06Z" transform="translate(-56.71 -56.73)"></path><path class="cls-2" d="M219.36,217.47v-1.84h.45c1.57,0,2.32-.24,2.32-.79a2.32,2.32,0,0,0-.41-1.09l-4.79-7.83-2.87,3v3.62c0,2.15,0,2.29.24,2.57s1.06.51,2.84.51h.51v1.84h-13.3v-1.84h.52c1.77,0,2.49-.14,2.8-.51s.24-.42.24-2.57V197.71c0-2.15,0-2.28-.24-2.56s-1-.51-2.8-.51h-.52v-1.85h13.3v1.85h-.51c-1.78,0-2.53.14-2.84.51s-.24.41-.24,2.56v8l7.56-8a4.55,4.55,0,0,0,1.13-1.87c0-.79-.89-1.2-2.57-1.2h-.82v-1.85h11.52v1.85c-2.25.14-4,1.13-6.94,4l-2.84,3L228.21,213c1.54,2.49,1.72,2.53,3.59,2.63v1.84Z" transform="translate(-56.71 -56.73)"></path><path class="cls-2" d="M244.65,218a11,11,0,0,1-7-2.29l-2.12,2H234l-.21-9.67h1.74c1.89,5.13,5.27,8.17,9.13,8.17,3,0,4.92-1.61,4.92-4a3,3,0,0,0-1.5-2.73,11.32,11.32,0,0,0-3.69-1l-2.12-.41c-5.37-1-8.44-4-8.44-8.14,0-4.54,3.59-7.62,8.85-7.62a10.2,10.2,0,0,1,6.15,1.85l1.78-1.58h1.54l.44,8.86h-1.81c-2-4.86-4.85-7.35-8.41-7.35-2.7,0-4.62,1.5-4.62,3.59a3,3,0,0,0,2.33,2.94,19.42,19.42,0,0,0,3.49.82l1.64.37c5.91,1.3,8.48,3.73,8.48,8.07C253.68,214.64,250,218,244.65,218Z" transform="translate(-56.71 -56.73)"></path><path class="cls-2" d="M119.15,176.33c-3.74,0-6.27-1.78-7-5.18-.13-.65-.39-2.52-.61-5.44-.35-4.52-1.74-5.13-4.92-5.13h-2.44v8.79c0,2.78,0,2.91.31,3.31s1.35.6,3.61.6h1.13v2.36H91.86v-2.36h.65c2.27,0,3.18-.17,3.57-.6s.31-.53.31-3.31V150.52c0-2.78,0-2.91-.31-3.31s-1.3-.61-3.57-.61h-.65v-2.35h18.59c4,0,6.92.53,8.57,1.57a7.38,7.38,0,0,1,3.53,6.31c0,4.36-2.7,6.7-8.71,7.84,3.83,1.26,5.36,3.22,6.1,7.14l.3,1.65c.52,3.78.83,3.92,2,3.92,1.3,0,2-1.4,2-4.14h2.35C126.55,173.15,123.85,176.33,119.15,176.33ZM108.36,146.6h-1c-2.78,0-3.09.31-3.09,2.79v8.79h2.4c5.78,0,7.61-1.39,7.61-5.83C114.23,148.39,112.4,146.6,108.36,146.6Z" transform="translate(-56.71 -56.73)"></path><path class="cls-2" d="M151.74,153.77c-.72.75-.89,1.64-.89,4.64v6.87c0,4-.27,5.58-1.23,7.12-1.67,2.63-4.31,3.79-8.68,3.79-4.82,0-8.14-1.36-9.54-3.93-.65-1.2-.89-2.63-.89-5.5V155.92c0-2.15,0-2.29-.24-2.56s-1-.52-2.8-.52H127V151h13.29v1.84h-.51c-1.78,0-2.53.14-2.84.52s-.24.41-.24,2.56v10.94c0,5.5,2,6.77,5.51,6.77,2.84,0,4.82-1.1,5.81-3.25.45-1,.58-2.29.58-5.1v-6.87c0-3-.17-3.89-.89-4.64a3.85,3.85,0,0,0-2.8-.93V151h9.74v1.84A4,4,0,0,0,151.74,153.77Z" transform="translate(-56.71 -56.73)"></path><path class="cls-2" d="M167.53,176.19a11,11,0,0,1-7-2.29l-2.12,2h-1.54l-.2-9.68h1.74c1.88,5.13,5.27,8.17,9.13,8.17,3,0,4.92-1.6,4.92-4a3,3,0,0,0-1.5-2.73,11.59,11.59,0,0,0-3.69-1l-2.12-.41c-5.37-1-8.45-4-8.45-8.13,0-4.55,3.59-7.63,8.86-7.63a10.2,10.2,0,0,1,6.15,1.85l1.78-1.57H175l.44,8.85h-1.81c-2-4.85-4.85-7.35-8.41-7.35-2.7,0-4.62,1.51-4.62,3.59a3,3,0,0,0,2.33,2.94,17.21,17.21,0,0,0,3.49.82l1.64.38c5.91,1.3,8.48,3.72,8.48,8.07C176.56,172.84,172.86,176.19,167.53,176.19Z" transform="translate(-56.71 -56.73)"></path><path class="cls-2" d="M190.33,176.19a11,11,0,0,1-7-2.29l-2.12,2h-1.54l-.2-9.68h1.74c1.88,5.13,5.26,8.17,9.13,8.17,3,0,4.92-1.6,4.92-4a3,3,0,0,0-1.5-2.73,11.68,11.68,0,0,0-3.7-1l-2.12-.41c-5.36-1-8.44-4-8.44-8.13,0-4.55,3.59-7.63,8.85-7.63a10.23,10.23,0,0,1,6.16,1.85l1.78-1.57h1.53l.45,8.85h-1.81c-2-4.85-4.86-7.35-8.41-7.35-2.7,0-4.62,1.51-4.62,3.59a3,3,0,0,0,2.33,2.94,17.23,17.23,0,0,0,3.48.82l1.64.38c5.92,1.3,8.48,3.72,8.48,8.07C199.35,172.84,195.66,176.19,190.33,176.19Z" transform="translate(-56.71 -56.73)"></path><path class="cls-2" d="M224.27,175.68H201.06v-1.85h.51c1.78,0,2.5-.13,2.8-.51s.24-.41.24-2.56V155.92c0-2.15,0-2.29-.24-2.56s-1-.52-2.8-.52h-.51V151H224l.21,8.89h-1.78a16.41,16.41,0,0,0-2-4.52,6.93,6.93,0,0,0-5.78-2.53h-.95c-1.41,0-2.23.24-2.6.76s-.34.78-.34,2.18V162H212c2,0,3.66-1.71,4-4.85h1.85V168.7h-1.85c-.37-3.14-2.05-4.85-4-4.85h-1.26v7.59c0,1.13.1,1.5.54,1.91s.86.48,2.53.48h1c4.13,0,6.56-2.22,8-7.35h1.81Z" transform="translate(-56.71 -56.73)"></path><path class="cls-2" d="M250,175.68H227.1v-1.85h.52c1.77,0,2.49-.13,2.8-.51s.24-.41.24-2.6v-14.8c0-2.15,0-2.29-.24-2.56s-1-.52-2.8-.52h-.52V151h13.54v1.84h-.75c-1.81,0-2.53.14-2.84.52s-.24.41-.24,2.56v15.52c0,1.13.1,1.5.55,1.91s.85.48,2.53.48h.72a7.2,7.2,0,0,0,5.77-2.56,12.51,12.51,0,0,0,2.23-4.79h1.81Z" transform="translate(-56.71 -56.73)"></path><path class="cls-2" d="M274.68,175.68h-22.9v-1.85h.51c1.78,0,2.5-.13,2.81-.51s.24-.41.24-2.6v-14.8c0-2.15,0-2.29-.24-2.56s-1-.52-2.81-.52h-.51V151h13.54v1.84h-.76c-1.81,0-2.52.14-2.83.52s-.24.41-.24,2.56v15.52c0,1.13.1,1.5.55,1.91s.85.48,2.52.48h.72a7.21,7.21,0,0,0,5.78-2.56,12.52,12.52,0,0,0,2.22-4.79h1.81Z" transform="translate(-56.71 -56.73)"></path><path class="cls-2" d="M156.28,280.86H145.8v-.8h.3c1.39,0,1.54-.09,1.54-.81v-9.11c0-.72-.15-.8-1.54-.8h-.3v-.8h10.49v4.36h-.73c-.49-3-1.21-3.56-4-3.56h-.89c-.92,0-1.08.12-1.08.85v3.89H150c1.62,0,2.31-.67,2.39-2.34h.8v5.6h-.8c0-1.6-.34-2.46-2.46-2.46h-.34v4.36c0,.71.36.82,1.23.82h1.13c2.66,0,3.43-.94,4-3.76h.75Z" transform="translate(-56.71 -56.73)"></path><path class="cls-2" d="M162,281.11a3.64,3.64,0,0,1-2.33-.83l-.6.7h-.6v-3.23h.69c.4,1.71,1.43,2.63,2.86,2.63,1,0,1.71-.56,1.71-1.36s-.48-1-1.83-1.35l-.9-.21a3.49,3.49,0,0,1-1.81-.77,2.07,2.07,0,0,1-.6-1.57,2.34,2.34,0,0,1,2.49-2.47,3.1,3.1,0,0,1,2.08.68l.5-.61h.6v2.86h-.6a3.38,3.38,0,0,0-.84-1.5,2.26,2.26,0,0,0-1.65-.68c-.94,0-1.59.49-1.59,1.18a1,1,0,0,0,.6.9,3.3,3.3,0,0,0,1.24.38l.86.19a3.34,3.34,0,0,1,1.79.71,2.12,2.12,0,0,1,.72,1.73A2.55,2.55,0,0,1,162,281.11Z" transform="translate(-56.71 -56.73)"></path><path class="cls-2" d="M169.24,281.11a1.9,1.9,0,0,1-2-1.1,5.1,5.1,0,0,1-.2-2v-4.35h-1.4V273c1.38-.1,2.14-1.23,2.31-3.45h.69v3.38h2.51v.74h-2.51v4.66c0,1.35.23,1.77,1,1.77s1.28-.78,1.33-2.32h.72a3.11,3.11,0,0,1,0,.4C171.77,279.77,170.93,281.11,169.24,281.11Z" transform="translate(-56.71 -56.73)"></path><path class="cls-2" d="M174.35,281.1a1.07,1.07,0,1,1,1.08-1.08A1.07,1.07,0,0,1,174.35,281.1Z" transform="translate(-56.71 -56.73)"></path><path class="cls-2" d="M183.24,280.86v-.8h1.11c1.36,0,1.52-.09,1.52-.81v-7.33c0-1-.07-1.08-1.06-1.08h-1.5v-.74a5.34,5.34,0,0,0,3.72-1.26h.61c-.08,1.21-.12,2-.12,2.87v7.05c0,.94,0,.94.12,1.06s.52.24,1.42.24H190v.8Z" transform="translate(-56.71 -56.73)"></path><path class="cls-2" d="M194.77,281.11c-1.57,0-2.76-.85-2.76-2a1.18,1.18,0,0,1,1.16-1.22,1,1,0,0,1,1,1,1.45,1.45,0,0,1-.24.75.7.7,0,0,0-.1.29c0,.26.39.43.95.43a2.69,2.69,0,0,0,2.53-2,13.39,13.39,0,0,0,.61-3.45,3.22,3.22,0,0,1-2.85,1.56A3.36,3.36,0,0,1,191.7,273a4,4,0,0,1,3.91-4.12c2.54,0,4.18,2.2,4.18,5.63S198,281.11,194.77,281.11Zm.91-11.53c-1.3,0-2.12,1.19-2.12,3.07s.73,2.82,2,2.82,2.19-.93,2.19-2.72S196.94,269.58,195.68,269.58Z" transform="translate(-56.71 -56.73)"></path><path class="cls-2" d="M205.42,281.11c-2.53,0-4.17-2.18-4.17-5.51,0-3.5,1.8-6.76,5-6.76,1.6,0,2.8.87,2.8,2.05a1.14,1.14,0,0,1-1.13,1.23,1,1,0,0,1-1-1,1.7,1.7,0,0,1,.25-.8.45.45,0,0,0,.09-.24c0-.31-.36-.49-1-.49a2.7,2.7,0,0,0-2.47,1.91,9.72,9.72,0,0,0-.63,3.56,3.28,3.28,0,0,1,2.82-1.53,3.36,3.36,0,0,1,3.37,3.51A4,4,0,0,1,205.42,281.11Zm.08-6.55c-1.38,0-2.23,1.08-2.23,2.83s1,3,2.18,3,2-1.26,2-3.23C207.48,275.53,206.73,274.56,205.5,274.56Z" transform="translate(-56.71 -56.73)"></path><path class="cls-2" d="M211.75,280.86v-.8h1.1c1.37,0,1.52-.09,1.52-.81v-7.33c0-1-.07-1.08-1.06-1.08h-1.5v-.74a5.34,5.34,0,0,0,3.72-1.26h.62c-.09,1.21-.12,2-.12,2.87v7.05c0,.94,0,.94.12,1.06s.51.24,1.42.24h.93v.8Z" transform="translate(-56.71 -56.73)"></path><path class="cls-2" d="M143.21,249.39c-1,0-1.21.34-1.73,1.67l-3.92,10.11h-.69l-4.31-10.82c-.33-.79-.57-1-1.32-1h-.34v-.8h5.33v.8h-.69c-.76,0-1,.12-1,.43a1.71,1.71,0,0,0,.13.51l3.12,7.94,2.65-7a3.28,3.28,0,0,0,.21-1c0-.55-.52-.89-1.39-.89h-.32v-.8h4.63v.8Z" transform="translate(-56.71 -56.73)"></path><path class="cls-2" d="M143.89,260.91v-.61h.2c1.1,0,1.2-.12,1.2-.8v-4.77c0-.71-.1-.85-.74-.85h-.87v-.73l3.21-.19v6.54c0,.68.1.8,1.21.8h.21v.61Zm2.18-9.56a.85.85,0,1,1,.87-.85A.86.86,0,0,1,146.07,251.35Z" transform="translate(-56.71 -56.73)"></path><path class="cls-2" d="M152.91,261.17c-2.12,0-3.57-1.67-3.57-4.1s1.59-4.37,3.8-4.37c1.52,0,2.67.89,2.67,2a1.06,1.06,0,0,1-1,1.16,1,1,0,0,1-1-.95,1.07,1.07,0,0,1,.35-.79c.06-.1.1-.15.1-.2,0-.27-.45-.51-1-.51-1.26,0-2.1,1.38-2.1,3.44s.86,3.25,2.22,3.25c.89,0,1.47-.5,2-1.73l.66.26C155.3,260.47,154.43,261.17,152.91,261.17Z" transform="translate(-56.71 -56.73)"></path><path class="cls-2" d="M160.2,261.17a1.88,1.88,0,0,1-1.94-1.11,4.94,4.94,0,0,1-.21-2v-4.36h-1.4V253c1.39-.1,2.14-1.23,2.31-3.45h.7V253h2.51v.73h-2.51v4.66c0,1.35.22,1.78,1,1.78s1.28-.79,1.34-2.32h.71a3,3,0,0,1,0,.39C162.73,259.82,161.89,261.17,160.2,261.17Z" transform="translate(-56.71 -56.73)"></path><path class="cls-2" d="M167.35,261.17a4.28,4.28,0,1,1,3.68-4.24A4,4,0,0,1,167.35,261.17Zm0-7.73c-1.28,0-1.93,1.19-1.93,3.51s.67,3.48,1.9,3.48,1.89-1.22,1.89-3.5S168.57,253.44,167.38,253.44Z" transform="translate(-56.71 -56.73)"></path><path class="cls-2" d="M178,255.23a.9.9,0,0,1-.94-.94,1,1,0,0,1,.31-.77,2.26,2.26,0,0,0-1.71,1.57,9.13,9.13,0,0,0-.67,3.55v.86c0,.68.19.8,1.29.8h.32v.61h-4.56v-.61h.24c1.11,0,1.13-.12,1.13-.8v-4.77c0-.73-.11-.85-.74-.85H172v-.73l3-.19v2.11c.55-1.5,1.49-2.37,2.57-2.37a1.34,1.34,0,0,1,1.48,1.37A1,1,0,0,1,178,255.23Z" transform="translate(-56.71 -56.73)"></path><path class="cls-2" d="M179.72,260.91v-.61h.21c1.09,0,1.19-.12,1.19-.8v-4.77c0-.71-.1-.85-.73-.85h-.87v-.73l3.21-.19v6.54c0,.68.1.8,1.21.8h.2v.61Zm2.19-9.56a.85.85,0,1,1,.87-.85A.85.85,0,0,1,181.91,251.35Z" transform="translate(-56.71 -56.73)"></path><path class="cls-2" d="M192.3,261c-.81,0-1.23-.34-1.51-1.21a3.81,3.81,0,0,1-3,1.35c-1.5,0-2.47-.79-2.47-2,0-1.67,1.38-2.51,5.36-3.19v-.67c0-1.5-.7-1.87-1.85-1.87-.82,0-1.51.31-1.51.66,0,.09.37.62.37.92a.86.86,0,0,1-.92.87,1,1,0,0,1-1-1c0-1.23,1.41-2.14,3.33-2.14s3.17.53,3.17,2.72v3.43c0,.85.17,1.18.65,1.18a5.29,5.29,0,0,1,.73-.19.18.18,0,0,1,.17.2C193.86,260.54,193.06,261,192.3,261Zm-1.59-4.32c-3,.5-3.64,1-3.64,2.22a1.3,1.3,0,0,0,1.35,1.33,2.48,2.48,0,0,0,2-1.05c.29-.45.34-.69.34-1.71Z" transform="translate(-56.71 -56.73)"></path><path class="cls-2" d="M195.58,264l-.39-.48c1.14-.8,1.72-1.61,1.72-2.32,0-.11,0-.16-.11-.16h-.06a1.06,1.06,0,0,1-.27,0,1,1,0,0,1-1.16-1,1,1,0,0,1,1.11-1c.84,0,1.4.67,1.4,1.69C197.82,262,197.1,263,195.58,264Z" transform="translate(-56.71 -56.73)"></path><path class="cls-2" d="M210.31,260.91h-6.2v-.8h.31c1.38,0,1.53-.08,1.53-.8v-9.12c0-.71-.15-.8-1.53-.8h-.31v-.8h6.13c2.57,0,4.15,1,4.15,3,0,1.4-.89,2.5-2.77,2.89,2.32.41,3.42,1.4,3.42,3.09C215,259.65,213.26,260.91,210.31,260.91Zm-.63-11.52H209c-.89,0-1.13.19-1.13.85v3.9h1.53c2.18,0,3-.65,3-2.32S211.69,249.39,209.68,249.39Zm-.31,5.55h-1.51V259c0,.94.13,1.08,1,1.08h.71c2.36,0,3.37-.58,3.37-2.59S212,254.94,209.37,254.94Z" transform="translate(-56.71 -56.73)"></path><path class="cls-2" d="M222.48,261.17c-3.37,0-5.77-2.63-5.77-6.3s2.64-6.54,5.78-6.54a4.46,4.46,0,0,1,3,1.15l.68-1h.9v4.93h-.75a11.74,11.74,0,0,0-1-2.54,3.35,3.35,0,0,0-2.9-1.72c-2.38,0-3.52,2.08-3.52,5.8s1.19,5.43,3.72,5.43c2,0,3.36-1.16,3.86-3.81l.8.14C227,259.57,225.21,261.17,222.48,261.17Z" transform="translate(-56.71 -56.73)"></path><path class="cls-2" d="M148.33,90.41v-.87h.78c.7,0,1.16-.19,1.16-.49a1.63,1.63,0,0,0-.15-.5l-1-2.5h-4.93l-.62,1.64a2.35,2.35,0,0,0-.17.79c0,.7.51,1.06,1.52,1.06h.37v.87h-4.94v-.87h.26c.93,0,1.19-.28,1.86-2l4.29-10.86h.78l4.75,11.65c.43,1,.54,1.19,1.47,1.19h.36v.87Zm-1.71-10.65-2.07,5.29h4.17Z" transform="translate(-56.71 -56.73)"></path><path class="cls-2" d="M170.2,81.73c-.52-3.18-1.32-3.89-4.4-3.89H165c-1,0-1.18.13-1.18.93V83h.45c1.77,0,2.52-.72,2.61-2.55h.87v6.11h-.87c-.06-1.76-.37-2.68-2.69-2.68h-.37v4.77c0,.78.17.88,1.68.88h.62v.87h-6.4v-.87H160c1.51,0,1.68-.1,1.68-.88v-10c0-.78-.17-.87-1.68-.87h-.34V77H171v4.77Z" transform="translate(-56.71 -56.73)"></path><path class="cls-2" d="M179.32,90.54c-.88,0-1.34-.37-1.64-1.32a4.17,4.17,0,0,1-3.24,1.47c-1.64,0-2.71-.85-2.71-2.18,0-1.82,1.51-2.74,5.86-3.48V84.3c0-1.64-.77-2-2-2-.89,0-1.65.34-1.65.73,0,.09.4.67.4,1a.94.94,0,0,1-1,1,1.05,1.05,0,0,1-1.08-1.16c0-1.34,1.54-2.33,3.63-2.33s3.47.58,3.47,3v3.75c0,.93.18,1.28.7,1.28a6.82,6.82,0,0,1,.81-.2.2.2,0,0,1,.18.22C181,90,180.16,90.54,179.32,90.54Zm-1.73-4.71c-3.23.54-4,1.1-4,2.42a1.43,1.43,0,0,0,1.47,1.46,2.68,2.68,0,0,0,2.12-1.16c.32-.48.38-.74.38-1.86Z" transform="translate(-56.71 -56.73)"></path><path class="cls-2" d="M192.74,90.41v-.67H193c1.21,0,1.23-.13,1.23-.87v-3.8a4,4,0,0,0-.22-1.55,1.45,1.45,0,0,0-1.36-.93c-1.31,0-2.15,1.19-2.15,3v3.23c0,.74,0,.87,1.22.87H192v.67h-4.72v-.67h.26c1.21,0,1.23-.13,1.23-.87v-4a2.83,2.83,0,0,0-.37-1.66,1.54,1.54,0,0,0-1.23-.61c-1.21,0-2.13,1.23-2.13,2.89v3.37c0,.76,0,.89,1.22.89h.26v.67h-4.7v-.67h.26c1.2,0,1.21-.13,1.21-.89V83.67c0-.8-.11-.93-.8-.93h-.76v-.81l3.31-.2v1.44a3,3,0,0,1,2.69-1.72,2.59,2.59,0,0,1,2.57,1.87,3.28,3.28,0,0,1,2.91-1.87,2.7,2.7,0,0,1,2.19,1.06,2.88,2.88,0,0,1,.6,2.18v4.16c0,.76,0,.89,1.21.89h.26v.67Z" transform="translate(-56.71 -56.73)"></path><path class="cls-2" d="M198.41,90.41v-.67h.23c1.19,0,1.3-.13,1.3-.87v-5.2c0-.79-.11-.93-.8-.93h-.95v-.81l3.5-.2v7.14c0,.74.11.87,1.33.87h.22v.67ZM200.8,80a1,1,0,0,1-.92-.93.94.94,0,1,1,1.87,0A.94.94,0,0,1,200.8,80Z" transform="translate(-56.71 -56.73)"></path><path class="cls-2" d="M204.25,90.41v-.67h.31c1.2,0,1.21-.13,1.21-.87V78.62c0-.8-.11-.93-.78-.93h-.91v-.8l3.45-.21V88.87c0,.74,0,.87,1.23.87h.31v.67Z" transform="translate(-56.71 -56.73)"></path><path class="cls-2" d="M218.71,82.4c-.71,0-1,.38-1.45,1.51l-2.13,5.26a15.22,15.22,0,0,1-1.77,3.59,3.12,3.12,0,0,1-2.57,1.49,1.54,1.54,0,0,1-1.7-1.43,1.1,1.1,0,0,1,1.12-1.16.88.88,0,0,1,.95.84c0,.21-.13.52-.13.65s.13.19.3.19c.6,0,1.45-1,2.14-2.41l.32-.65-3-6.87c-.33-.75-.63-1-1.23-1h-.24v-.67h4.44v.67h-.4c-.63,0-.85.13-.85.47a1,1,0,0,0,.11.39l2,4.79,1.69-4.21a1.9,1.9,0,0,0,.19-.75c0-.48-.3-.69-1-.69h-.3v-.67h3.72v.67Z" transform="translate(-56.71 -56.73)"></path><path class="cls-2" d="M142.73,111.88H135.4v-.95h.36c1.64,0,1.82-.1,1.82-1V99.2c0-.85-.18-1-1.82-1h-.36v-1h7.25c3,0,4.91,1.21,4.91,3.55,0,1.66-1.05,3-3.28,3.42,2.75.48,4,1.65,4,3.65C148.32,110.39,146.22,111.88,142.73,111.88ZM142,98.25h-.81c-1,0-1.33.22-1.33,1v4.6h1.8c2.58,0,3.57-.77,3.57-2.74S144.36,98.25,142,98.25Zm-.36,6.56h-1.78v4.85c0,1.11.14,1.27,1.17,1.27h.85c2.79,0,4-.68,4-3.07C145.84,105.64,144.75,104.81,141.62,104.81Z" transform="translate(-56.71 -56.73)"></path><path class="cls-2" d="M154.42,112.19c-2.42,0-4.36-2.23-4.36-5s1.94-5,4.4-5,4.33,2.24,4.33,5S156.85,112.19,154.42,112.19Zm0-9.16c-1.51,0-2.28,1.42-2.28,4.17s.79,4.11,2.24,4.11,2.24-1.45,2.24-4.13S155.88,103,154.46,103Z" transform="translate(-56.71 -56.73)"></path><path class="cls-2" d="M164.52,112.19c-2.42,0-4.36-2.23-4.36-5s1.94-5,4.4-5,4.32,2.24,4.32,5S167,112.19,164.52,112.19Zm0-9.16c-1.51,0-2.28,1.42-2.28,4.17s.79,4.11,2.24,4.11,2.24-1.45,2.24-4.13S166,103,164.56,103Z" transform="translate(-56.71 -56.73)"></path><path class="cls-2" d="M176.09,111.88v-.73h.39c.66,0,.89-.08.89-.34a.86.86,0,0,0-.15-.36l-2.4-3.37-1.23,1.17v2c0,.81,0,1,1.33,1h.28v.73h-5.11v-.73h.29c1.29,0,1.31-.14,1.31-1V99.09c0-.86-.12-1-.87-1h-1v-.87l3.74-.23v10l2.73-2.62a1.25,1.25,0,0,0,.46-.79c0-.26-.3-.38-.95-.38h-.63v-.73h5.32v.73A5.23,5.23,0,0,0,177.1,105l-.91.89,2.87,3.92a2.75,2.75,0,0,0,2.37,1.39v.73Z" transform="translate(-56.71 -56.73)"></path><path class="cls-2" d="M186.86,112.19a4.31,4.31,0,0,1-2.77-1l-.71.83h-.7V108.2h.81c.48,2,1.69,3.11,3.39,3.11,1.19,0,2-.66,2-1.61s-.57-1.21-2.16-1.6l-1.07-.24a4.05,4.05,0,0,1-2.14-.91,2.45,2.45,0,0,1-.71-1.86,2.77,2.77,0,0,1,3-2.92,3.72,3.72,0,0,1,2.46.8l.59-.72h.7v3.39h-.7a4.19,4.19,0,0,0-1-1.78,2.71,2.71,0,0,0-2-.81c-1.11,0-1.88.59-1.88,1.4a1.18,1.18,0,0,0,.71,1.07,3.92,3.92,0,0,0,1.47.44l1,.23a4,4,0,0,1,2.12.84,2.5,2.5,0,0,1,.85,2A3,3,0,0,1,186.86,112.19Z" transform="translate(-56.71 -56.73)"></path><path class="cls-2" d="M195.36,112.19a2.22,2.22,0,0,1-2.3-1.32,5.94,5.94,0,0,1-.24-2.38v-5.15h-1.66v-.79c1.64-.12,2.52-1.46,2.73-4.08h.82v4h3v.87h-3v5.51c0,1.6.27,2.1,1.2,2.1s1.51-.93,1.57-2.75h.85a4.47,4.47,0,0,1,0,.47C198.35,110.59,197.36,112.19,195.36,112.19Z" transform="translate(-56.71 -56.73)"></path><path class="cls-2" d="M203.8,112.19c-2.42,0-4.36-2.23-4.36-5s1.94-5,4.4-5,4.33,2.24,4.33,5S206.23,112.19,203.8,112.19Zm0-9.16c-1.51,0-2.28,1.42-2.28,4.17s.79,4.11,2.24,4.11,2.24-1.45,2.24-4.13S205.26,103,203.84,103Z" transform="translate(-56.71 -56.73)"></path><path class="cls-2" d="M216.4,105.15a1.07,1.07,0,0,1-1.11-1.11,1.17,1.17,0,0,1,.37-.9,2.64,2.64,0,0,0-2,1.85,10.81,10.81,0,0,0-.79,4.2v1c0,.81.22,1,1.51,1h.39v.73h-5.4v-.73h.29c1.31,0,1.33-.14,1.33-1v-5.63c0-.87-.12-1-.87-1h-.82v-.87l3.57-.22V105c.65-1.77,1.76-2.8,3-2.8a1.59,1.59,0,0,1,1.76,1.61A1.24,1.24,0,0,1,216.4,105.15Z" transform="translate(-56.71 -56.73)"></path><path class="cls-2" d="M223.09,112.19a4.43,4.43,0,0,1-4.57-4.75c0-3,1.94-5.27,4.53-5.27s4.16,2.14,4.16,5.17h-6.54c0,2.54,1.13,3.75,2.8,3.75,1.36,0,2.2-.6,3-2.16l.71.38A4.23,4.23,0,0,1,223.09,112.19ZM223,103c-1.23,0-2.32,1.28-2.32,3.44h3.53c.65,0,.83-.16.83-.75C225.05,104.1,224.24,103,223,103Z" transform="translate(-56.71 -56.73)"></path><path class="cls-2" d="M270.8,128.66c-8.4,3.72-17.11,5-26,2.75-6.82-1.72-13.53-4-20.24-6.17-9.43-3.09-19-4.73-28.9-3.74-5,.51-9.86,1.63-14.09,4.89.2.14.28.26.35.24a3.28,3.28,0,0,0,.75-.24,31.32,31.32,0,0,1,25.27-2.12c7.93,2.58,15.78,5.47,23.79,7.76,11.78,3.37,23.63,3.95,35.3-.72" transform="translate(-56.71 -56.73)"></path><path class="cls-2" d="M90.27,129.6c12.71,6.38,25.87,6.29,39.09,2.54,8.72-2.47,17.21-5.8,25.87-8.49,8.07-2.5,15.74-.56,23.09,3.13h0a1,1,0,0,1,.33.17l0,0c.23.15,1.14.44,1.22.64s-.5.71-.75,1h0c0,.13.07.27.12.39h0l.06-.06a.76.76,0,0,1,.24-.3,2.27,2.27,0,0,1,.52-.68l0,0c0-.09.07-.14.11-.14s0,0,0,0h0s0,0,.05,0l0,0,0,0a1.07,1.07,0,0,1,.22.2l.06.07.21.19v0a.22.22,0,0,1,.09.08.68.68,0,0,1,.23.14.63.63,0,0,1,.08-.23c-.06-.08-.13-.15-.19-.22L181,128c-.15-.15-.3-.3-.44-.46h0l.07,0h0a4,4,0,0,0-.86-.83c-9-5.9-18.94-6.59-28.87-4.72-8.76,1.64-17.35,4.48-25.86,7.32-12.19,4.06-24.08,4.44-35.8-1.1" transform="translate(-56.71 -56.73)"></path><path class="cls-2" d="M270.8,128.66c-8.4,3.72-17.11,5-26,2.75-6.82-1.72-13.53-4-20.24-6.17-9.43-3.09-19-4.73-28.9-3.74-5,.51-9.86,1.63-14.09,4.89.2.14.28.26.35.24a3.28,3.28,0,0,0,.75-.24,31.32,31.32,0,0,1,25.27-2.12c7.93,2.58,15.78,5.47,23.79,7.76,11.78,3.37,23.63,3.95,35.3-.72" transform="translate(-56.71 -56.73)"></path><path class="cls-2" d="M184.72,136.13a22.52,22.52,0,0,0-1-4.25c0,1.42.14,2.85,0,4.26-.17,2.24-1.68,3.11-3.56,3.06a2.88,2.88,0,0,1-3-3.23c0-1.59.35-3.18.55-4.77a26,26,0,0,0-1.47,4.5c-.44,3,1.07,4.92,3.72,5.13,3,.24,4.87-1.38,4.81-4.47A1.69,1.69,0,0,1,184.72,136.13Z" transform="translate(-56.71 -56.73)"></path><path class="cls-2" d="M270.44,128.49c-11.5,5.21-23.17,4.78-35.13.79-8.51-2.84-17.1-5.68-25.86-7.32-9.93-1.87-19.9-1.18-28.86,4.72a3.53,3.53,0,0,0-.84.8c.07,0,.14.09.15.13s-.51.72-.75,1v0l.35.07.08-.07a2.14,2.14,0,0,1,.53-.68l0,0c0-.09.07-.14.11-.14s0,0,0,0h0s0,0,.05,0l0,0,0,0a.74.74,0,0,1,.22.21s0,0,.06.06l.21.19v0a.32.32,0,0,1,.09.08.65.65,0,0,1,.24.15,1.13,1.13,0,0,1,.08-.24l-.2-.22L181,128c-.15-.15-.3-.3-.44-.46h0l.07,0,0,0h0s0,0,0,0l.2-.1a5.47,5.47,0,0,1,.82-.45l.26-.16s.09,0,.13,0c7.34-3.67,15-5.6,23-3.1,8.67,2.69,17.16,6,25.87,8.49,13.23,3.75,26.39,3.84,39.09-2.54" transform="translate(-56.71 -56.73)"></path><path class="cls-2" d="M183.8,136.26v-.5a7.14,7.14,0,0,0-.13-1.21,14.31,14.31,0,0,0-1.22-3.67,11.34,11.34,0,0,0-2.18-3.19,2.47,2.47,0,0,0-1.49-.82,2.52,2.52,0,0,1,1.6.67,11.37,11.37,0,0,1,2.56,3,15.16,15.16,0,0,1,1.67,3.73,8,8,0,0,1,.28,1.39l.06.49Z" transform="translate(-56.71 -56.73)"></path><path class="cls-2" d="M176,136a11.54,11.54,0,0,1,.32-1.77,14.22,14.22,0,0,1,1.48-3.6,11.26,11.26,0,0,1,2.44-2.91,7.2,7.2,0,0,1,1.4-.93,7.19,7.19,0,0,0-1.28,1.07,10.61,10.61,0,0,0-2.05,3,13.1,13.1,0,0,0-1,3.53,11.6,11.6,0,0,0-.13,1.66Z" transform="translate(-56.71 -56.73)"></path><path class="cls-2" d="M179.2,128.58a5,5,0,0,0-.5.71.12.12,0,1,0,.2.12,3,3,0,0,1,.46-.66c.09-.12-.07-.29-.16-.17Z" transform="translate(-56.71 -56.73)"></path><path class="cls-2" d="M180.46,127.64l2.93-1.53c.14-.07,0-.28-.11-.21l-2.94,1.54c-.13.07,0,.27.12.2Z" transform="translate(-56.71 -56.73)"></path><path class="cls-2" d="M180.34,127.65a11.1,11.1,0,0,1-2.37-1.28s-.06,0,0,0a11.49,11.49,0,0,0,2.39,1.29s0,0,0-.06Z" transform="translate(-56.71 -56.73)"></path><path class="cls-2" d="M180.23,127.87c.48.4.84.89,1.29,1.31.11.11.27-.06.16-.17-.45-.42-.81-.91-1.28-1.31-.12-.09-.28.07-.17.17Z" transform="translate(-56.71 -56.73)"></path><path class="cls-2" d="M179.14,128.74l.87-1.21s0-.06,0,0l-.87,1.21s0,.06,0,0Z" transform="translate(-56.71 -56.73)"></path><path class="cls-2" d="M178.35,126.78l1.55.86a.12.12,0,0,0,.12-.2l-1.56-.86a.11.11,0,0,0-.11.2Z" transform="translate(-56.71 -56.73)"></path><path class="cls-2" d="M179.91,127.69c-.19.12-.2.58,0,.27.09-.12-.07-.3-.17-.17a1.45,1.45,0,0,0-.27.39.13.13,0,0,0,.11.15c.24,0,.25-.34.41-.44s0-.29-.12-.2Z" transform="translate(-56.71 -56.73)"></path><path class="cls-2" d="M176,135.63a4.06,4.06,0,0,0,.44,2.92c.07.13.27,0,.19-.12a3.93,3.93,0,0,1-.41-2.74c0-.15-.19-.22-.22-.06Z" transform="translate(-56.71 -56.73)"></path><path class="cls-2" d="M184.57,135.69a3.4,3.4,0,0,1-.67,3.22c-.1.11.07.28.16.17a3.63,3.63,0,0,0,.73-3.45.11.11,0,1,0-.22.06Z" transform="translate(-56.71 -56.73)"></path><path class="cls-2" d="M184.59,136.6a.12.12,0,0,0,0-.24c-.14,0-.14.24,0,.24Z" transform="translate(-56.71 -56.73)"></path><path class="cls-2" d="M184.59,136.62V137a.12.12,0,1,0,.23,0c0-.22.07-.41-.07-.58s-.26.06-.17.17Z" transform="translate(-56.71 -56.73)"></path><path class="cls-2" d="M184,134" transform="translate(-56.71 -56.73)"></path><path class="cls-2" d="M176.39,134.24" transform="translate(-56.71 -56.73)"></path><path class="cls-2" d="M176.55,135.22" transform="translate(-56.71 -56.73)"></path><path d="M144.17,125.9a.05.05,0,0,0,0-.1.05.05,0,1,0,0,.1Z" transform="translate(-56.71 -56.73)"></path><path class="cls-2" d="M249.78,232.2c-6.39,3-13,4.06-19.79,2.24-5.2-1.4-10.3-3.22-15.41-5-7.18-2.51-14.47-3.84-22-3-3.83.41-7.51,1.32-10.73,4,.15.11.22.2.27.19a2,2,0,0,0,.57-.19,22.55,22.55,0,0,1,19.24-1.72c6,2.09,12,4.43,18.11,6.29,9,2.73,18,3.2,26.87-.59" transform="translate(-56.71 -56.73)"></path><path class="cls-2" d="M112.35,233c9.67,5.17,19.69,5.09,29.76,2.06,6.63-2,13.1-4.7,19.69-6.88,6.14-2,12-.46,17.58,2.53h0a.7.7,0,0,1,.25.15h0c.18.13.87.36.93.53s-.38.57-.57.85h0l.09.32h0s0,0,0-.05a.58.58,0,0,1,.18-.24,1.78,1.78,0,0,1,.4-.55l0,0c0-.07,0-.11.09-.11h0s0,0,0,0l0,0,0,0a.91.91,0,0,1,.17.17l0,.05.16.16h0s.05,0,.07.07a.5.5,0,0,1,.17.11l.06-.19c0-.06-.1-.12-.14-.17l-.09-.13c-.12-.12-.23-.25-.34-.38h0l.05,0h0a3.05,3.05,0,0,0-.66-.68c-6.82-4.78-14.41-5.34-22-3.83a144.94,144.94,0,0,0-19.69,5.94c-9.28,3.29-18.33,3.6-27.25-.89" transform="translate(-56.71 -56.73)"></path><path class="cls-2" d="M249.78,232.2c-6.39,3-13,4.06-19.79,2.24-5.2-1.4-10.3-3.22-15.41-5-7.18-2.51-14.47-3.84-22-3-3.83.41-7.51,1.32-10.73,4,.15.11.22.2.27.19a2,2,0,0,0,.57-.19,22.55,22.55,0,0,1,19.24-1.72c6,2.09,12,4.43,18.11,6.29,9,2.73,18,3.2,26.87-.59" transform="translate(-56.71 -56.73)"></path><path class="cls-2" d="M184.25,238.26a18.38,18.38,0,0,0-.79-3.44c0,1.15.11,2.31,0,3.45a2.42,2.42,0,0,1-2.71,2.48,2.28,2.28,0,0,1-2.32-2.62c0-1.29.28-2.57.42-3.86a22.79,22.79,0,0,0-1.12,3.64c-.33,2.43.82,4,2.84,4.16,2.3.2,3.7-1.12,3.66-3.62C184.26,238.39,184.25,238.32,184.25,238.26Z" transform="translate(-56.71 -56.73)"></path><path class="cls-2" d="M249.51,232.07c-8.76,4.22-17.64,3.87-26.74.64a144.94,144.94,0,0,0-19.69-5.94c-7.56-1.51-15.15-1-22,3.83a2.82,2.82,0,0,0-.64.65c.05,0,.1.08.11.11s-.38.58-.57.85h0v0l.27.06.06-.06a1.65,1.65,0,0,1,.41-.55l0,0c0-.07,0-.11.09-.11h0s0,0,0,0l0,0,0,0a.91.91,0,0,1,.17.17l0,.05.16.16h0a.16.16,0,0,1,.07.07.47.47,0,0,1,.19.12.59.59,0,0,1,0-.19l-.15-.18-.09-.13c-.12-.12-.23-.25-.34-.38h0l.05,0h0l.16-.07a4.31,4.31,0,0,1,.61-.37l.21-.13s.06,0,.09,0c5.59-3,11.42-4.54,17.55-2.51,6.59,2.18,13.06,4.87,19.69,6.88,10.07,3,20.09,3.11,29.76-2.06" transform="translate(-56.71 -56.73)"></path><path class="cls-2" d="M183.55,238.37V238a5.78,5.78,0,0,0-.09-1,12.25,12.25,0,0,0-.94-3,9.25,9.25,0,0,0-1.65-2.59,1.83,1.83,0,0,0-1.14-.66,1.81,1.81,0,0,1,1.22.54,9,9,0,0,1,1.95,2.47,12.73,12.73,0,0,1,1.27,3,8.35,8.35,0,0,1,.22,1.13l0,.4Z" transform="translate(-56.71 -56.73)"></path><path class="cls-2" d="M177.59,238.14a12,12,0,0,1,.25-1.44,12.26,12.26,0,0,1,1.13-2.92,8.81,8.81,0,0,1,1.86-2.35,5.73,5.73,0,0,1,1.06-.75,5.51,5.51,0,0,0-1,.87,9,9,0,0,0-1.56,2.47,11.27,11.27,0,0,0-.79,2.86,9.35,9.35,0,0,0-.1,1.34Z" transform="translate(-56.71 -56.73)"></path><path class="cls-2" d="M180.05,232.14a4.45,4.45,0,0,0-.38.58c-.06.11.09.21.15.1a2.18,2.18,0,0,1,.35-.54c.07-.1,0-.24-.12-.14Z" transform="translate(-56.71 -56.73)"></path><path class="cls-2" d="M181,231.38l2.23-1.24c.1-.06,0-.23-.09-.17l-2.23,1.25c-.1.05,0,.22.09.16Z" transform="translate(-56.71 -56.73)"></path><path class="cls-2" d="M180.92,231.39a8.17,8.17,0,0,1-1.81-1s0,0,0,0a8.27,8.27,0,0,0,1.82,1.05s0,0,0-.05Z" transform="translate(-56.71 -56.73)"></path><path class="cls-2" d="M180.84,231.57c.36.32.63.72,1,1.06.09.08.21,0,.13-.14-.34-.34-.62-.74-1-1.06-.09-.08-.21.06-.12.14Z" transform="translate(-56.71 -56.73)"></path><path class="cls-2" d="M180,232.27l.66-1s0,0,0,0l-.66,1s0,.05,0,0Z" transform="translate(-56.71 -56.73)"></path><path class="cls-2" d="M179.4,230.69l1.19.69c.09.06.18-.11.08-.16l-1.18-.7c-.1-.06-.19.11-.09.17Z" transform="translate(-56.71 -56.73)"></path><path class="cls-2" d="M180.59,231.42c-.15.1-.15.47,0,.22.07-.1-.06-.24-.13-.14s-.18.2-.2.31a.1.1,0,0,0,.08.13c.18,0,.19-.27.31-.35s0-.24-.09-.17Z" transform="translate(-56.71 -56.73)"></path><path class="cls-2" d="M177.64,237.85a3.46,3.46,0,0,0,.33,2.37c.06.11.21,0,.15-.09a3.36,3.36,0,0,1-.32-2.23c0-.12-.14-.17-.16-.05Z" transform="translate(-56.71 -56.73)"></path><path class="cls-2" d="M184.14,237.9a2.91,2.91,0,0,1-.51,2.61c-.08.09.05.23.12.14a3.11,3.11,0,0,0,.56-2.8c0-.11-.21-.06-.17.05Z" transform="translate(-56.71 -56.73)"></path><path class="cls-2" d="M184.15,238.64a.1.1,0,0,0,0-.2c-.11,0-.11.2,0,.2Z" transform="translate(-56.71 -56.73)"></path><path class="cls-2" d="M184.16,238.66V239a.09.09,0,1,0,.17,0c0-.18.06-.34-.05-.47s-.2,0-.12.14Z" transform="translate(-56.71 -56.73)"></path><path class="cls-2" d="M183.7,236.56" transform="translate(-56.71 -56.73)"></path><path class="cls-2" d="M177.91,236.73" transform="translate(-56.71 -56.73)"></path><path class="cls-2" d="M178,237.52" transform="translate(-56.71 -56.73)"></path><path d="M153.38,230a.05.05,0,0,0,0-.1.05.05,0,0,0,0,.1Z" transform="translate(-56.71 -56.73)"></path></svg> 